<svg width="82" height="56" viewBox="0 0 82 56" fill="none" xmlns="http://www.w3.org/2000/svg">
<path d="M26.6101 12.4155L21.0547 14.3383C27.7861 19.7902 29.8748 24.0404 33.1317 32.3645C32.1782 24.4236 31.3517 20.0192 26.6101 12.4155Z" fill="#9CE546"/>
<path d="M32.8874 11.2148H27.332C31.9097 18.8671 32.3939 23.8061 32.8874 32.3655C34.4699 23.3817 34.6841 18.4536 32.8874 11.2148Z" fill="#528838"/>
<ellipse cx="29.7474" cy="7.60954" rx="2.41539" ry="2.40349" fill="#528838"/>
<ellipse cx="22.9857" cy="9.5319" rx="2.41539" ry="2.40349" fill="#9CE546"/>
<ellipse cx="16.7045" cy="13.8586" rx="2.41539" ry="2.40349" fill="#90FDE1"/>
<path d="M20.8113 14.8193L15.9805 18.1842C24.6759 22.2701 27.492 25.2539 31.439 32.6051H33.3713C30.4728 24.914 27.2089 21.111 20.8113 14.8193Z" fill="#90FDE1"/>
<path d="M50.8196 12.4153L56.375 14.3381C49.6436 19.7899 47.5549 24.0401 44.298 32.3642C45.2515 24.4234 46.078 20.019 50.8196 12.4153Z" fill="#9CE546"/>
<path d="M44.5423 11.2141H50.0977C45.52 18.8663 45.0358 23.8053 44.5423 32.3648C42.9598 23.381 42.7456 18.4529 44.5423 11.2141Z" fill="#528838"/>
<ellipse cx="47.1381" cy="8.0883" rx="2.41539" ry="2.40349" fill="#528838"/>
<ellipse cx="54.3881" cy="9.53166" rx="2.41539" ry="2.40349" fill="#9CE546"/>
<ellipse cx="60.6615" cy="13.3769" rx="2.41539" ry="2.40349" fill="#90FDE1"/>
<path d="M56.6184 14.8186L61.4492 18.1835C52.7538 22.2694 49.9377 25.2532 45.9907 32.6044H44.0584C46.9569 24.9132 50.2208 21.1102 56.6184 14.8186Z" fill="#90FDE1"/>
<path d="M41.3425 4.00402C41.3425 5.72965 39.9367 7.12856 38.2025 7.12856C36.4683 7.12856 35.0625 5.72965 35.0625 4.00402C35.0625 2.27839 36.4683 0.158447 38.2025 0.158447C39.9367 0.158447 41.3425 2.27839 41.3425 4.00402Z" fill="#B8541B"/>
<path d="M42.7924 8.09033H33.8555C36.9172 16.875 37.2872 22.2305 35.3047 32.6059H41.8263C39.5891 23.6179 39.3903 18.3418 42.7924 8.09033Z" fill="#B8541B"/>
<path d="M37.1289 15.2409L37.9743 8.09058H38.6083L39.4537 15.2409L38.1856 16.5028L37.1289 15.2409Z" fill="white"/>
<path d="M8.09681 35.8883C8.08299 35.7052 8.04498 35.5445 7.98277 35.4062C7.92057 35.2646 7.83245 35.1453 7.71841 35.0486C7.60437 34.9484 7.46268 34.8741 7.29335 34.8257C7.12748 34.7738 6.93223 34.7479 6.7076 34.7479C6.2238 34.7479 5.78319 34.8637 5.38578 35.0952C4.98837 35.3268 4.65489 35.6602 4.38534 36.0957C4.11925 36.5311 3.93609 37.0564 3.83588 37.6715C3.73221 38.2935 3.72357 38.8257 3.80996 39.268C3.89635 39.7104 4.08296 40.049 4.36979 40.284C4.66007 40.519 5.0523 40.6365 5.54647 40.6365C5.98881 40.6365 6.37067 40.5726 6.69205 40.4447C7.01344 40.3169 7.27089 40.1354 7.46441 39.9004C7.65793 39.6654 7.77888 39.389 7.82726 39.0711L8.32489 39.1229H5.89896L6.23071 37.0702H10.9374L10.699 38.5423C10.54 39.5099 10.1979 40.3376 9.67263 41.0253C9.15081 41.7095 8.50113 42.2348 7.72359 42.6011C6.94605 42.964 6.09248 43.1454 5.16288 43.1454C4.13307 43.1454 3.26395 42.9259 2.55552 42.4871C1.8471 42.0482 1.34083 41.4227 1.03672 40.6106C0.736074 39.7985 0.677326 38.8326 0.860481 37.713C1.00562 36.8352 1.26826 36.0577 1.64839 35.3803C2.03198 34.703 2.50023 34.1311 3.05315 33.6645C3.60607 33.1946 4.21601 32.8404 4.88297 32.6019C5.54993 32.36 6.24108 32.2391 6.95642 32.2391C7.58191 32.2391 8.15038 32.3289 8.66183 32.5086C9.17328 32.6848 9.61043 32.9371 9.97328 33.2654C10.3361 33.5902 10.6074 33.9756 10.7871 34.4214C10.9703 34.8671 11.0446 35.3561 11.01 35.8883H8.09681ZM17.0813 39.5169L17.8278 35.0382H20.6891L19.3621 43.0002H16.6459L16.8947 41.4866H16.8118C16.5664 41.9946 16.2001 42.392 15.7128 42.6789C15.229 42.9622 14.6899 43.1039 14.0956 43.1039C13.5392 43.1039 13.0744 42.9761 12.7012 42.7203C12.3279 42.4646 12.0636 42.1121 11.9081 41.6629C11.7526 41.2136 11.7215 40.6987 11.8148 40.1182L12.6649 35.0382H15.5262L14.7798 39.5169C14.721 39.9108 14.7712 40.2201 14.9301 40.4447C15.0925 40.6693 15.3534 40.7817 15.7128 40.7817C15.9513 40.7817 16.1655 40.7315 16.3556 40.6313C16.5491 40.5277 16.7081 40.3825 16.8325 40.1959C16.9604 40.0058 17.0433 39.7795 17.0813 39.5169ZM20.8174 43.0002L22.1444 35.0382H24.9228L24.674 36.5518H24.757C24.9954 35.992 25.2943 35.5825 25.6537 35.3233C26.0131 35.0641 26.4054 34.9345 26.8304 34.9345C26.9548 34.9345 27.074 34.9449 27.1881 34.9656C27.3056 34.9829 27.4213 35.0071 27.5354 35.0382L27.1207 37.4849C26.9859 37.433 26.8183 37.3968 26.6179 37.376C26.4174 37.3518 26.2395 37.3397 26.084 37.3397C25.8075 37.3397 25.5483 37.4037 25.3064 37.5315C25.068 37.6559 24.8641 37.8322 24.6948 38.0603C24.5289 38.2849 24.4183 38.5492 24.363 38.8533L23.6788 43.0002H20.8174ZM32.8901 39.5169L33.6365 35.0382H36.4979L35.1708 43.0002H32.4546L32.7034 41.4866H32.6205C32.3752 41.9946 32.0088 42.392 31.5216 42.6789C31.0378 42.9622 30.4987 43.1039 29.9043 43.1039C29.3479 43.1039 28.8831 42.9761 28.5099 42.7203C28.1367 42.4646 27.8723 42.1121 27.7168 41.6629C27.5613 41.2136 27.5302 40.6987 27.6235 40.1182L28.4736 35.0382H31.335L30.5885 39.5169C30.5298 39.9108 30.5799 40.2201 30.7389 40.4447C30.9013 40.6693 31.1622 40.7817 31.5216 40.7817C31.76 40.7817 31.9743 40.7315 32.1643 40.6313C32.3579 40.5277 32.5168 40.3825 32.6412 40.1959C32.7691 40.0058 32.852 39.7795 32.8901 39.5169ZM39.9644 46.1519C39.1627 46.1519 38.4957 46.0378 37.9635 45.8098C37.4348 45.5851 37.0443 45.2741 36.792 44.8767C36.5432 44.4828 36.4395 44.0301 36.481 43.5186H39.2387C39.2456 43.6914 39.2957 43.8296 39.389 43.9333C39.4823 44.037 39.6119 44.1113 39.7778 44.1562C39.9437 44.2011 40.1372 44.2236 40.3584 44.2236C40.7316 44.2236 41.0547 44.132 41.3277 43.9488C41.6007 43.7691 41.7683 43.446 41.8305 42.9795L42.0586 41.6318H41.9756C41.8305 41.9013 41.6353 42.1311 41.3899 42.3212C41.1445 42.5078 40.8629 42.6512 40.545 42.7514C40.227 42.8482 39.8884 42.8966 39.529 42.8966C38.9622 42.8966 38.4629 42.7653 38.0309 42.5026C37.6024 42.24 37.2914 41.8236 37.0979 41.2534C36.9078 40.6832 36.8888 39.9385 37.0408 39.0192C37.1998 38.0585 37.4797 37.2775 37.8806 36.6762C38.2815 36.0749 38.7428 35.6343 39.2646 35.3544C39.7864 35.0745 40.31 34.9345 40.8352 34.9345C41.2292 34.9345 41.5627 35.0036 41.8357 35.1419C42.1087 35.2767 42.3264 35.4581 42.4888 35.6862C42.6512 35.9108 42.7636 36.1579 42.8258 36.4274H42.888L43.116 35.0382H45.9774L44.6504 42.9795C44.5467 43.6568 44.2824 44.2305 43.8573 44.7005C43.4357 45.1739 42.8897 45.5333 42.2193 45.7787C41.5523 46.0275 40.8007 46.1519 39.9644 46.1519ZM40.9182 40.8646C41.1808 40.8646 41.4193 40.792 41.6335 40.6469C41.8478 40.4983 42.0292 40.2875 42.1778 40.0145C42.3264 39.738 42.4318 39.4063 42.494 39.0192C42.5562 38.6253 42.5597 38.2883 42.5044 38.0084C42.4491 37.725 42.3402 37.5091 42.1778 37.3605C42.0154 37.2084 41.8029 37.1324 41.5402 37.1324C41.2776 37.1324 41.0409 37.2084 40.8301 37.3605C40.6193 37.5091 40.4413 37.725 40.2962 38.0084C40.151 38.2883 40.0473 38.6253 39.9851 39.0192C39.9229 39.4132 39.9177 39.7484 39.9696 40.0248C40.0214 40.2979 40.1268 40.5069 40.2858 40.6521C40.4447 40.7938 40.6555 40.8646 40.9182 40.8646ZM49.9001 43.1454C49.05 43.1454 48.345 42.983 47.7852 42.6581C47.2254 42.3298 46.8314 41.8598 46.6033 41.2482C46.3752 40.6331 46.3338 39.897 46.4789 39.04C46.6171 38.2175 46.9022 37.4987 47.3342 36.8836C47.7696 36.2685 48.3174 35.7898 48.9774 35.4477C49.6409 35.1056 50.3839 34.9345 51.2064 34.9345C51.8077 34.9345 52.3347 35.0278 52.7874 35.2144C53.2435 35.4011 53.615 35.6723 53.9019 36.0283C54.1887 36.3842 54.3822 36.8145 54.4824 37.319C54.5861 37.8201 54.5861 38.3868 54.4824 39.0192L54.3787 39.6827H47.2668L47.5156 38.1069H51.9943C52.0288 37.8788 52.0064 37.6784 51.9269 37.5056C51.8509 37.3294 51.7282 37.1929 51.5589 37.0961C51.393 36.9959 51.1925 36.9458 50.9576 36.9458C50.7226 36.9458 50.5014 36.9959 50.2941 37.0961C50.0902 37.1963 49.9157 37.3363 49.7705 37.516C49.6288 37.6957 49.5338 37.9065 49.4854 38.1484L49.1744 39.8071C49.1329 40.0629 49.1485 40.2909 49.221 40.4914C49.2936 40.6918 49.4198 40.849 49.5994 40.9631C49.7791 41.0771 50.0107 41.1341 50.2941 41.1341C50.4876 41.1341 50.6707 41.1082 50.8435 41.0564C51.0198 41.0011 51.1753 40.9216 51.31 40.8179C51.4483 40.7108 51.5589 40.5812 51.6418 40.4292H54.2543C54.0677 40.9821 53.7723 41.4624 53.3679 41.8702C52.9671 42.2745 52.4729 42.589 51.8854 42.8136C51.3014 43.0348 50.6396 43.1454 49.9001 43.1454ZM58.7809 43.1454C57.9308 43.1454 57.2259 42.983 56.666 42.6581C56.1062 42.3298 55.7122 41.8598 55.4842 41.2482C55.2561 40.6331 55.2146 39.897 55.3597 39.04C55.498 38.2175 55.7831 37.4987 56.215 36.8836C56.6505 36.2685 57.1982 35.7898 57.8583 35.4477C58.5218 35.1056 59.2647 34.9345 60.0872 34.9345C60.6885 34.9345 61.2155 35.0278 61.6682 35.2144C62.1244 35.4011 62.4959 35.6723 62.7827 36.0283C63.0695 36.3842 63.263 36.8145 63.3633 37.319C63.4669 37.8201 63.4669 38.3868 63.3633 39.0192L63.2596 39.6827H56.1477L56.3965 38.1069H60.8751C60.9097 37.8788 60.8872 37.6784 60.8077 37.5056C60.7317 37.3294 60.609 37.1929 60.4397 37.0961C60.2738 36.9959 60.0734 36.9458 59.8384 36.9458C59.6034 36.9458 59.3822 36.9959 59.1749 37.0961C58.971 37.1963 58.7965 37.3363 58.6513 37.516C58.5097 37.6957 58.4146 37.9065 58.3662 38.1484L58.0552 39.8071C58.0138 40.0629 58.0293 40.2909 58.1019 40.4914C58.1745 40.6918 58.3006 40.849 58.4803 40.9631C58.66 41.0771 58.8915 41.1341 59.1749 41.1341C59.3684 41.1341 59.5516 41.1082 59.7244 41.0564C59.9006 41.0011 60.0561 40.9216 60.1909 40.8179C60.3291 40.7108 60.4397 40.5812 60.5226 40.4292H63.1352C62.9486 40.9821 62.6531 41.4624 62.2488 41.8702C61.8479 42.2745 61.3537 42.589 60.7663 42.8136C60.1822 43.0348 59.5205 43.1454 58.7809 43.1454ZM66.7495 41.1134L67.33 37.713H67.7032L70.0877 35.0382H73.3015L69.3827 39.2058H68.5741L66.7495 41.1134ZM63.8674 43.0002L65.6298 32.3842H68.4911L66.7287 43.0002H63.8674ZM68.7814 43.0002L67.4752 39.8486L69.6937 37.8166L72.0575 43.0002H68.7814ZM80.8683 37.63H78.2973C78.3111 37.4641 78.2817 37.3225 78.2091 37.205C78.1366 37.0875 78.0346 36.9976 77.9033 36.9354C77.7754 36.8732 77.6303 36.8421 77.4679 36.8421C77.1845 36.8421 76.9271 36.906 76.6955 37.0339C76.464 37.1583 76.3344 37.3225 76.3067 37.5263C76.2895 37.6058 76.3154 37.6801 76.3845 37.7492C76.4536 37.8184 76.635 37.8823 76.9288 37.941L78.5046 38.2313C79.2925 38.3765 79.8662 38.6408 80.2256 39.0244C80.5884 39.4045 80.7197 39.9074 80.6195 40.5328C80.5262 41.0754 80.2878 41.5419 79.9042 41.9324C79.5206 42.3229 79.0333 42.6236 78.4424 42.8344C77.8549 43.0417 77.2052 43.1454 76.4934 43.1454C75.2389 43.1454 74.299 42.8948 73.6735 42.3938C73.0514 41.8927 72.7681 41.2378 72.8234 40.4292H75.6018C75.6087 40.6884 75.6951 40.8836 75.861 41.0149C76.0303 41.1428 76.2549 41.2102 76.5348 41.2171C76.8389 41.2274 77.105 41.167 77.3331 41.0357C77.5612 40.9009 77.689 40.7333 77.7167 40.5328C77.7271 40.4188 77.6769 40.3324 77.5664 40.2737C77.4592 40.2149 77.2536 40.1562 76.9495 40.0974L75.581 39.8486C74.7931 39.7069 74.2195 39.4235 73.8601 38.9985C73.5007 38.57 73.3763 38.024 73.4869 37.3605C73.5767 36.8317 73.791 36.3877 74.1296 36.0283C74.4717 35.6689 74.921 35.3976 75.4774 35.2144C76.0337 35.0278 76.6765 34.9345 77.4057 34.9345C78.5979 34.9345 79.4999 35.1747 80.1115 35.6551C80.7266 36.1319 80.9789 36.7903 80.8683 37.63Z" fill="#B8541B"/>
<path d="M24.3031 53.8416L25.1877 48.5335H26.1864L26.0447 49.3767H26.1C26.2429 49.0911 26.4514 48.8664 26.7255 48.7029C26.9997 48.537 27.2923 48.454 27.6033 48.454C27.6701 48.454 27.7461 48.4563 27.8314 48.461C27.9166 48.4633 27.9857 48.469 28.0387 48.4782L27.8728 49.4666C27.8337 49.4551 27.7623 49.4424 27.6586 49.4286C27.5549 49.4124 27.4478 49.4044 27.3372 49.4044C27.0953 49.4044 26.8707 49.4562 26.6633 49.5599C26.456 49.6613 26.282 49.8029 26.1415 49.9849C26.001 50.1646 25.91 50.3697 25.8685 50.6001L25.3363 53.8416H24.3031ZM30.1268 53.9487C29.6223 53.9487 29.2007 53.8335 28.862 53.6031C28.5234 53.3704 28.2849 53.0456 28.1467 52.6286C28.0108 52.2093 27.9877 51.722 28.0776 51.1668C28.1651 50.6231 28.3414 50.1485 28.6063 49.743C28.8736 49.3376 29.2076 49.0231 29.6085 48.7996C30.0117 48.5761 30.4598 48.4644 30.9528 48.4644C31.4573 48.4644 31.8778 48.5808 32.2141 48.8134C32.5528 49.0461 32.7912 49.3721 32.9295 49.7914C33.0677 50.2107 33.0919 50.6991 33.002 51.2567C32.9145 51.7958 32.7359 52.268 32.4664 52.6735C32.1991 53.0767 31.8651 53.39 31.4642 53.6135C31.0634 53.8369 30.6176 53.9487 30.1268 53.9487ZM30.1856 53.0813C30.5173 53.0813 30.8065 52.9937 31.053 52.8187C31.3018 52.6436 31.5045 52.4109 31.6612 52.1206C31.8179 51.8303 31.925 51.5124 31.9826 51.1668C32.0356 50.8327 32.0344 50.5275 31.9791 50.251C31.9261 49.9723 31.8109 49.7488 31.6336 49.5806C31.4562 49.4124 31.2096 49.3283 30.894 49.3283C30.5623 49.3283 30.2708 49.417 30.0197 49.5944C29.7709 49.7695 29.5682 50.0034 29.4115 50.296C29.2572 50.5885 29.1523 50.9076 29.097 51.2532C29.044 51.585 29.044 51.8902 29.097 52.169C29.15 52.4454 29.2652 52.6666 29.4426 52.8325C29.62 52.9984 29.8677 53.0813 30.1856 53.0813ZM33.8781 55.8321C33.7214 55.8321 33.582 55.8194 33.4599 55.794C33.3378 55.771 33.2468 55.7457 33.1869 55.718L33.5809 54.8714C33.7629 54.922 33.9253 54.9416 34.0681 54.9301C34.2133 54.9186 34.3492 54.8587 34.4759 54.7504C34.6026 54.6421 34.7316 54.4717 34.8629 54.239L35.0565 53.8899L34.0163 48.5335H35.0807L35.7373 52.6631H35.7925L37.8245 48.5335H38.9753L35.7925 54.5431C35.6428 54.8287 35.4723 55.066 35.2811 55.255C35.0922 55.4462 34.8802 55.5902 34.6452 55.6869C34.4125 55.7837 34.1568 55.8321 33.8781 55.8321ZM40.4405 53.959C40.1042 53.959 39.8104 53.8968 39.5593 53.7724C39.3082 53.6457 39.1227 53.4626 39.0029 53.223C38.8831 52.9834 38.852 52.6896 38.9096 52.3418C38.9603 52.0423 39.0594 51.7958 39.2068 51.6022C39.3566 51.4087 39.5386 51.2555 39.7528 51.1426C39.9671 51.0274 40.1998 50.941 40.4509 50.8834C40.702 50.8258 40.9554 50.7832 41.2112 50.7556C41.5337 50.7187 41.7952 50.6876 41.9956 50.6623C42.1983 50.6369 42.3504 50.5978 42.4518 50.5448C42.5531 50.4895 42.6142 50.3996 42.6349 50.2752V50.251C42.6833 49.9515 42.6395 49.7188 42.5036 49.553C42.37 49.3848 42.1373 49.3007 41.8055 49.3007C41.46 49.3007 41.1697 49.3767 40.9347 49.5288C40.702 49.6808 40.5304 49.8513 40.4198 50.0402L39.4936 49.8191C39.6595 49.4965 39.8703 49.2362 40.126 49.0381C40.3841 48.8376 40.6663 48.6925 40.9727 48.6026C41.2791 48.5105 41.5924 48.4644 41.9127 48.4644C42.1246 48.4644 42.3446 48.4898 42.5727 48.5404C42.8008 48.5888 43.0081 48.6787 43.1948 48.81C43.3837 48.9413 43.5242 49.1291 43.6164 49.3733C43.7085 49.6152 43.7223 49.9296 43.6578 50.3167L43.0738 53.8416H42.0647L42.1891 53.1158H42.1477C42.0601 53.2495 41.938 53.3808 41.7814 53.5098C41.627 53.6388 41.4381 53.7459 41.2146 53.8312C40.9911 53.9164 40.7331 53.959 40.4405 53.959ZM40.793 53.1297C41.081 53.1297 41.3356 53.0732 41.5567 52.9603C41.7802 52.8474 41.961 52.7 42.0993 52.518C42.2375 52.3337 42.3239 52.1367 42.3585 51.9271L42.4725 51.2428C42.4287 51.2797 42.3515 51.3131 42.241 51.343C42.1327 51.373 42.0106 51.3995 41.8747 51.4225C41.7387 51.4456 41.6051 51.4652 41.4738 51.4813C41.3448 51.4974 41.2376 51.5124 41.1524 51.5262C40.9497 51.5515 40.7596 51.5942 40.5822 51.6541C40.4071 51.714 40.2608 51.8004 40.1433 51.9132C40.0258 52.0238 39.9521 52.1713 39.9222 52.3556C39.8807 52.6113 39.9417 52.8048 40.1053 52.9361C40.2712 53.0652 40.5004 53.1297 40.793 53.1297ZM46.6583 46.7642L45.4833 53.8416H44.4501L45.625 46.7642H46.6583ZM50.2358 48.5335L50.1011 49.3629H47.2017L47.3365 48.5335H50.2358ZM48.3214 47.2618H49.3546L48.5183 52.283C48.4861 52.4834 48.4918 52.6343 48.5356 52.7357C48.5794 52.8348 48.6462 52.9027 48.736 52.9396C48.8282 52.9742 48.9307 52.9914 49.0436 52.9914C49.1265 52.9914 49.1991 52.9857 49.2613 52.9742C49.3235 52.9626 49.3731 52.9534 49.4099 52.9465L49.4652 53.8001C49.3961 53.8231 49.3028 53.8462 49.1853 53.8692C49.0701 53.8945 48.9296 53.9084 48.7637 53.9107C48.4918 53.9153 48.2465 53.8669 48.0276 53.7655C47.8087 53.6619 47.6452 53.5052 47.5369 53.2955C47.4286 53.0836 47.4021 52.8175 47.4574 52.4973L48.3214 47.2618ZM50.8224 55.8321C50.6658 55.8321 50.5264 55.8194 50.4043 55.794C50.2822 55.771 50.1912 55.7457 50.1313 55.718L50.5253 54.8714C50.7073 54.922 50.8697 54.9416 51.0125 54.9301C51.1577 54.9186 51.2936 54.8587 51.4203 54.7504C51.547 54.6421 51.676 54.4717 51.8073 54.239L52.0009 53.8899L50.9607 48.5335H52.025L52.6816 52.6631H52.7369L54.7689 48.5335H55.9197L52.7369 54.5431C52.5872 54.8287 52.4167 55.066 52.2255 55.255C52.0366 55.4462 51.8246 55.5902 51.5896 55.6869C51.3569 55.7837 51.1012 55.8321 50.8224 55.8321Z" fill="#6A4B39"/>
</svg>
